<svg xmlns="http://www.w3.org/2000/svg" width="150" height="150" fill="none" viewBox="0 0 150 150">
  <mask id="a" width="110" height="122" x="20" y="14" maskUnits="userSpaceOnUse" style="mask-type:alpha">
    <path fill="#0084E4" d="M70 15.387a10 10 0 0 1 10 0l44.127 25.476a10 10 0 0 1 5 8.66v50.953c0 3.573-1.906 6.874-5 8.661L80 134.613a9.997 9.997 0 0 1-10 0l-44.127-25.476a10.002 10.002 0 0 1-5-8.661V49.523a10 10 0 0 1 5-8.66L70 15.387Z"/>
  </mask>
  <g mask="url(#a)">
    <path fill="url(#b)" d="M70 15.387a10 10 0 0 1 10 0l44.127 25.476a10 10 0 0 1 5 8.66v50.953c0 3.573-1.906 6.874-5 8.661L80 134.613a9.997 9.997 0 0 1-10 0l-44.127-25.476a10.002 10.002 0 0 1-5-8.661V49.523a10 10 0 0 1 5-8.66L70 15.387Z"/>
    <path fill="#fff" d="M70 28.387a10 10 0 0 1 10 0l33.301 19.226a10 10 0 0 1 5 8.66v38.453c0 3.573-1.906 6.874-5 8.661L80 122.613a9.997 9.997 0 0 1-10 0l-33.301-19.226a10.001 10.001 0 0 1-5-8.66V56.273a10 10 0 0 1 5-8.66L70 28.387Z" opacity=".2"/>
  </g>
  <path fill="#fff" d="M85 51c-3.586 0-6.836.672-9.376 1.938C73.086 54.204 71 56.266 71 59v8c0 .258.086.508.126.75A24.362 24.362 0 0 0 65 67c-3.586 0-6.836.672-9.376 1.938C53.086 70.204 51 72.266 51 75v16c0 2.734 2.086 4.796 4.626 6.062C58.164 98.328 61.414 99 65 99c3.586 0 6.836-.672 9.376-1.938C76.912 95.796 79 93.734 79 91v-.812A23.44 23.44 0 0 0 85 91c3.586 0 6.836-.672 9.376-1.938C96.912 87.796 99 85.734 99 83V59c0-2.734-2.086-4.796-4.626-6.062C91.838 51.672 88.588 51 85 51Zm0 4c3.046 0 5.758.656 7.562 1.562C94.368 57.468 95 58.422 95 59c0 .58-.632 1.532-2.438 2.438C90.76 62.344 88.046 63 85 63c-3.046 0-5.758-.656-7.562-1.562C75.632 60.532 75 59.578 75 59c0-.58.632-1.532 2.438-2.438C79.24 55.656 81.954 55 85 55Zm-10 9.688c.21.116.406.266.626.374C78.164 66.328 81.414 67 85 67c3.586 0 6.836-.672 9.376-1.938.218-.108.414-.258.624-.374V67c0 .58-.632 1.532-2.438 2.438C90.758 70.344 88.046 71 85 71c-3.046 0-5.758-.656-7.562-1.562C75.632 68.532 75 67.578 75 67v-2.312ZM65 71c3.046 0 5.758.656 7.562 1.562C74.368 73.468 75 74.422 75 75c0 .58-.632 1.532-2.438 2.438C70.758 78.344 68.046 79 65 79c-3.046 0-5.758-.656-7.562-1.562C55.632 76.532 55 75.578 55 75c0-.58.632-1.532 2.438-2.438C59.24 71.656 61.954 71 65 71Zm30 1.688V75c0 .58-.632 1.532-2.438 2.438C90.758 78.344 88.046 79 85 79a19.002 19.002 0 0 1-6-.938V75c0-.258-.086-.508-.126-.75 1.86.484 3.922.75 6.126.75 3.586 0 6.836-.672 9.376-1.938.218-.108.414-.258.624-.374Zm-40 8c.21.116.406.266.626.374C58.164 82.328 61.414 83 65 83c3.586 0 6.836-.672 9.376-1.938.218-.108.414-.258.624-.374V83c0 .58-.632 1.532-2.438 2.438C70.758 86.344 68.046 87 65 87c-3.046 0-5.758-.656-7.562-1.562C55.632 84.532 55 83.578 55 83v-2.312Zm40 0V83c0 .58-.632 1.532-2.438 2.438C90.758 86.344 88.046 87 85 87c-2.274 0-4.328-.32-6-.876V82.25c1.836.484 3.836.75 6 .75 3.586 0 6.836-.672 9.376-1.938.218-.108.414-.258.624-.374Zm-40 8c.21.116.406.266.626.374C58.164 90.328 61.414 91 65 91c3.586 0 6.836-.672 9.376-1.938.218-.108.414-.258.624-.374V91c0 .58-.632 1.532-2.438 2.438C70.758 94.344 68.046 95 65 95c-3.046 0-5.758-.656-7.562-1.562C55.632 92.532 55 91.578 55 91v-2.312Z"/>
  <g clip-path="url(#c)">
    <path fill="#fff" fill-rule="evenodd" d="M59.695 48.732a1.88 1.88 0 0 0-3.39 0l-5.411 10.643c-.647 1.271.17 2.958 1.695 2.958H63.41c1.524 0 2.341-1.686 1.695-2.958l-5.41-10.643ZM58 52.333a.666.666 0 0 1 .667.667v3.333a.667.667 0 0 1-1.334 0V53a.667.667 0 0 1 .667-.667ZM58 58a.667.667 0 0 1 .667.667V59a.667.667 0 0 1-1.334 0v-.333A.667.667 0 0 1 58 58Z" clip-rule="evenodd"/>
  </g>
  <defs>
    <linearGradient id="b" x1="75" x2="75" y1="12.5" y2="137.5" gradientUnits="userSpaceOnUse">
      <stop stop-color="#0069E4"/>
      <stop offset="1" stop-color="#6087EB"/>
    </linearGradient>
    <clipPath id="c">
      <path fill="#fff" d="M0 0h16v16H0z" transform="translate(50 47)"/>
    </clipPath>
  </defs>
</svg>
