<svg xmlns="http://www.w3.org/2000/svg" width="150" height="150" fill="none" viewBox="0 0 150 150">
  <mask id="a" width="110" height="122" x="20" y="14" maskUnits="userSpaceOnUse" style="mask-type:alpha">
    <path fill="#0084E4" d="M70 15.387a10 10 0 0 1 10 0l44.127 25.476a10 10 0 0 1 5 8.66v50.953c0 3.573-1.906 6.874-5 8.661L80 134.613a9.997 9.997 0 0 1-10 0l-44.127-25.476a10.002 10.002 0 0 1-5-8.661V49.523a10 10 0 0 1 5-8.66L70 15.387Z"/>
  </mask>
  <g mask="url(#a)">
    <path fill="url(#b)" d="M70 15.387a10 10 0 0 1 10 0l44.127 25.476a10 10 0 0 1 5 8.66v50.953c0 3.573-1.906 6.874-5 8.661L80 134.613a9.997 9.997 0 0 1-10 0l-44.127-25.476a10.002 10.002 0 0 1-5-8.661V49.523a10 10 0 0 1 5-8.66L70 15.387Z"/>
  </g>
  <path fill="#fff" fill-rule="evenodd" d="M93 44c-6.075 0-11 4.925-11 11s4.925 11 11 11 11-4.925 11-11-4.925-11-11-11Zm1 6a1 1 0 0 0-2 0v6a1 1 0 0 0 2 0v-6Zm0 9.5a1 1 0 0 0-2 0v.5a1 1 0 0 0 2 0v-.5Z" clip-rule="evenodd"/>
  <path fill="#fff" d="M89 91c-7.2 0-10.06-8.352-12.826-16.428C73.554 66.916 70.84 59 65 59a6.88 6.88 0 0 0-6.106 4.642L55.1 62.368c.102-.3 2.542-7.368 9.9-7.368 8.7 0 12.024 9.71 14.96 18.276C82.378 80.334 84.66 87 89 87a6.88 6.88 0 0 0 6.106-4.642l3.792 1.274c-.1.3-2.54 7.368-9.898 7.368Z"/>
  <path fill="#fff" d="M51 99V77h4v-4h-4V47h-4v52a3.998 3.998 0 0 0 4 4h52v-4H51Z"/>
  <path fill="#fff" d="M59 73h4v4h-4v-4Zm8 0h4v4h-4v-4Zm16 0h4v4h-4v-4Zm8 0h4v4h-4v-4Zm8 0h4v4h-4v-4Z"/>
  <defs>
    <linearGradient id="b" x1="130.5" x2="18.5" y1="75.5" y2="75.5" gradientUnits="userSpaceOnUse">
      <stop stop-color="#0084E4"/>
      <stop offset="1" stop-color="#0017E4"/>
    </linearGradient>
  </defs>
</svg>
