<svg xmlns="http://www.w3.org/2000/svg" width="150" height="150" fill="none" viewBox="0 0 150 150">
  <mask id="a" width="110" height="122" x="20" y="14" maskUnits="userSpaceOnUse" style="mask-type:alpha">
    <path fill="#0084E4" d="M70 15.387a10 10 0 0 1 10 0l44.127 25.476a10 10 0 0 1 5 8.66v50.953c0 3.573-1.906 6.874-5 8.661L80 134.613a9.997 9.997 0 0 1-10 0l-44.127-25.476a10.002 10.002 0 0 1-5-8.661V49.523a10 10 0 0 1 5-8.66L70 15.387Z"/>
  </mask>
  <g mask="url(#a)">
    <path fill="url(#b)" d="M70 15.387a10 10 0 0 1 10 0l44.127 25.476a10 10 0 0 1 5 8.66v50.953c0 3.573-1.906 6.874-5 8.661L80 134.613a9.997 9.997 0 0 1-10 0l-44.127-25.476a10.002 10.002 0 0 1-5-8.661V49.523a10 10 0 0 1 5-8.66L70 15.387Z"/>
  </g>
  <path fill="#fff" d="m56.193 47.775-2.468 4.415L42.5 71.835v.665C42.5 79.392 48.108 85 55 85s12.5-5.608 12.5-12.5v-.665L56.975 53.41l10.54 3.953c0 .047-.015.09-.015.137 0 3.255 2.097 6.005 5 7.04V95h-10v5h15V64.54a7.48 7.48 0 0 0 3.188-2.21l11.787 4.585-9.975 17.46v.665c0 6.89 5.608 12.46 12.5 12.46 6.893 0 12.5-5.57 12.5-12.46v-.665L95 62.5l-12.515-4.845c0-.05.015-.1.015-.155 0-4.135-3.365-7.5-7.5-7.5a7.45 7.45 0 0 0-5.703 2.69l-13.104-4.915ZM75 55a2.502 2.502 0 0 1 0 5 2.502 2.502 0 0 1 0-5Zm-20 5.04L60.693 70H49.306L55 60.04Zm40 12.538 5.67 9.922H89.33L95 72.578ZM47.965 75h14.07A7.483 7.483 0 0 1 55 80c-3.255 0-6-2.095-7.035-5ZM87.95 87.5h14.1A7.484 7.484 0 0 1 95 92.54a7.483 7.483 0 0 1-7.05-5.04Z"/>
  <defs>
    <linearGradient id="b" x1="75" x2="75" y1="12.5" y2="137.5" gradientUnits="userSpaceOnUse">
      <stop stop-color="#0040E4"/>
      <stop offset="1" stop-color="#5543BE"/>
    </linearGradient>
  </defs>
</svg>
