<svg width="1512" height="1937" viewBox="0 0 1512 1937" fill="none" xmlns="http://www.w3.org/2000/svg">
<g clip-path="url(#clip0_263_3)">
<rect width="1512" height="1937" fill="#C3E5F1"/>
<path d="M-21 -27H1560V1033H-21V-27Z" fill="url(#paint0_linear_263_3)"/>
<rect y="787" width="1512" height="504" fill="#81CDF3"/>
<g clip-path="url(#clip1_263_3)">
<path style="mix-blend-mode:overlay" opacity="0.25" d="M-292.451 748.075C-292.451 748.075 279.483 902.834 492.23 933.247C704.977 963.637 1207.82 1007.85 1299.01 1005.09C1390.21 1002.33 1647.14 996.812 1647.14 996.812L1681.5 1289.5H-253L-292.427 748.075H-292.451Z" fill="url(#paint1_linear_263_3)"/>
<path style="mix-blend-mode:overlay" opacity="0.25" d="M-275.868 178.756C-275.868 178.756 5.94709 319.712 52.9123 339.036C99.8776 358.383 309.865 416.427 365.134 446.817C420.402 477.207 867.976 571.185 942.587 593.293C1017.17 615.402 1255.71 632.917 1314.67 642.127C1373.6 651.337 1636.1 656.858 1636.1 656.858L1649.92 695.553C1649.92 695.553 1384.69 667.924 1334.94 667.924C1285.19 667.924 972.993 612.641 934.308 604.359C895.622 596.078 390.02 466.188 356.854 463.404C323.688 460.643 72.279 394.318 8.73075 366.665C-54.8175 339.036 -273.085 234.015 -273.085 234.015L-275.844 178.733L-275.868 178.756Z" fill="url(#paint2_linear_263_3)"/>
<path style="mix-blend-mode:overlay" opacity="0.15" d="M428.682 29.5192C428.682 29.5192 630.366 142.821 743.663 198.104C856.936 253.387 961.93 294.843 1058.64 327.993C1155.36 361.168 1174.68 366.689 1293.49 394.318C1412.31 421.948 1462.04 424.708 1473.08 427.493C1484.14 430.253 1558.73 441.319 1558.73 441.319C1558.73 441.319 1326.64 389.678 1286.12 380.516C1229.02 367.617 984.033 275.495 941.683 257.075C896.788 237.561 738.143 148.366 705.001 123.497C671.835 98.6285 580.664 37.8247 580.664 37.8247L428.705 29.543L428.682 29.5192Z" fill="url(#paint3_linear_263_3)"/>
<path style="mix-blend-mode:overlay" opacity="0.25" d="M-256.525 604.359C-256.525 604.359 168.969 778.465 671.811 825.443C1174.65 872.42 1286.21 876.894 1345.98 887.555C1405.74 898.217 1658.18 905.57 1658.18 905.57L1666.46 947.026C1666.46 947.026 1000.59 886.223 903.878 891.744C807.164 897.265 299.777 794.791 166.661 781.083C33.5457 767.375 -264.853 659.594 -264.853 659.594L-256.573 604.312L-256.525 604.359Z" fill="url(#paint4_linear_263_3)"/>
<path style="mix-blend-mode:overlay" opacity="0.15" d="M-367.039 792.292C-367.039 792.292 403.82 971.919 555.779 996.812C707.737 1021.7 1560.5 1076 1560.5 1076C1560.5 1076 1706 1202.5 555.779 1047.5C486.687 1047.5 -364.279 847.551 -364.279 847.551L-367.039 792.268V792.292Z" fill="url(#paint5_linear_263_3)"/>
<g style="mix-blend-mode:screen" opacity="0.8">
<path d="M243.558 158.147C241.94 158.147 241.94 160.646 243.558 160.646C245.176 160.646 245.176 158.147 243.558 158.147Z" fill="white"/>
<path d="M326.448 118.666C320.239 118.666 320.239 128.305 326.448 128.305C332.658 128.305 332.658 118.666 326.448 118.666Z" fill="white"/>
<path d="M429.705 117.358C429.539 117.12 429.372 116.882 429.11 116.739C428.896 116.62 428.682 116.572 428.468 116.525C428.254 116.477 428.016 116.429 427.802 116.382C427.35 116.287 426.874 116.168 426.422 116.072C425.756 115.906 424.994 116.072 424.495 116.572C424.138 116.953 423.924 117.429 423.924 117.976C423.924 118.476 424.138 119.023 424.495 119.38C425.018 119.904 425.732 120.047 426.422 119.88C426.874 119.785 427.35 119.666 427.802 119.571C428.016 119.523 428.254 119.476 428.468 119.428C428.682 119.38 428.896 119.333 429.11 119.214C429.372 119.071 429.539 118.833 429.705 118.595C429.943 118.286 429.943 117.691 429.705 117.381V117.358Z" fill="white"/>
<path d="M472.888 168.737C470.675 168.737 470.652 172.188 472.888 172.188C475.125 172.188 475.125 168.737 472.888 168.737Z" fill="white"/>
<path d="M583.402 146.843C581.474 146.843 581.451 149.866 583.402 149.866C585.352 149.866 585.352 146.843 583.402 146.843Z" fill="white"/>
<path d="M33.5701 421.686C29.6682 421.686 29.6444 427.755 33.5701 427.755C37.4958 427.755 37.4958 421.686 33.5701 421.686Z" fill="white"/>
<path d="M1459.25 110.646C1456.95 110.646 1456.95 114.216 1459.25 114.216C1461.56 114.216 1461.56 110.646 1459.25 110.646Z" fill="white"/>
<path d="M1362.54 160.67C1360.61 160.67 1360.59 163.692 1362.54 163.692C1364.49 163.692 1364.49 160.67 1362.54 160.67Z" fill="white"/>
<path d="M1454.69 153.887C1454.66 153.388 1454.26 152.912 1453.73 152.935C1453.21 152.959 1452.81 153.364 1452.78 153.887C1452.73 154.816 1452.69 155.72 1452.64 156.648C1452.62 157.219 1453.16 157.766 1453.73 157.743C1454.02 157.743 1454.3 157.647 1454.5 157.433C1454.69 157.219 1454.83 156.957 1454.8 156.672C1454.76 155.744 1454.71 154.839 1454.66 153.911L1454.69 153.887Z" fill="white"/>
<path d="M765.767 279.374C763.649 279.374 763.649 282.658 765.767 282.658C767.884 282.658 767.884 279.374 765.767 279.374Z" fill="white"/>
<path d="M847.135 185.777C846.921 185.563 846.659 185.396 846.35 185.325C846.041 185.229 845.707 185.229 845.398 185.325C844.946 185.42 844.518 185.491 844.066 185.586C843.852 185.634 843.638 185.682 843.4 185.729C843.09 185.8 842.805 185.943 842.519 186.062C842.353 186.157 842.21 186.3 842.115 186.467C842.02 186.633 841.948 186.848 841.948 187.038C841.948 187.252 841.996 187.443 842.115 187.609C842.21 187.776 842.353 187.919 842.519 188.014C842.805 188.133 843.09 188.299 843.4 188.347C843.614 188.394 843.828 188.442 844.066 188.49C844.518 188.585 844.946 188.656 845.398 188.751C845.707 188.847 846.041 188.847 846.35 188.751C846.659 188.656 846.921 188.513 847.135 188.299C847.444 187.942 847.658 187.514 847.658 187.038C847.658 186.586 847.468 186.11 847.135 185.777Z" fill="white"/>
<path d="M619.327 229.613C617.21 229.613 617.21 232.897 619.327 232.897C621.445 232.897 621.445 229.613 619.327 229.613Z" fill="white"/>
</g>
<path d="M589.23 20C589.23 20 856.937 142.821 913.419 168.618L831.147 147.748C831.147 147.748 944.111 184.587 995.691 212.835C1047.27 241.083 1097.62 265.643 1144.27 282.849C1190.93 300.055 1281.81 322.163 1281.81 322.163L1178.68 280.397C1178.68 280.397 1370.25 334.443 1399.7 346.722C1429.16 359.002 1459.87 367.593 1459.87 367.593C1459.87 367.593 1429.18 340.583 1418.12 334.419C1407.05 328.279 1377.6 329.516 1372.67 312.311C1367.77 295.105 1381.26 266.856 1355.47 250.888C1329.68 234.92 1307.58 232.468 1301.44 243.511C1295.3 254.577 1296.54 274.21 1296.54 274.21C1296.54 274.21 1291.64 249.65 1276.89 250.864C1262.16 252.102 1252.34 260.693 1252.34 260.693C1252.34 260.693 1271.99 201.745 1252.34 188.228C1232.68 174.711 1203.2 189.465 1203.2 189.465C1203.2 189.465 1230.21 153.84 1219.17 119.452C1208.11 85.0637 1183.55 50.6756 1144.27 61.7179C1104.97 72.7839 1096.38 110.861 1096.38 110.861C1096.38 110.861 1141.82 43.2982 1033.76 26.1161C925.696 8.91014 919.557 43.322 898.692 48.2244C877.826 53.1268 849.562 17.525 829.933 26.1161C810.305 34.7071 794.317 61.7417 794.317 61.7417C794.317 61.7417 759.937 56.8393 726.772 49.4619C693.606 42.0845 589.23 20 589.23 20Z" fill="url(#paint6_linear_263_3)"/>
<path d="M964.69 578.562C964.69 578.562 1033.76 596.982 1070.61 604.359C1107.44 611.737 1187.57 628.3 1225.33 637.534C1263.09 646.744 1348.74 653.193 1348.74 653.193C1348.74 653.193 1322.95 643.055 1314.67 642.127C1306.39 641.199 1307.29 642.127 1292.57 635.677C1277.84 629.228 1273.22 623.707 1258.5 625.54C1243.77 627.372 1231.78 610.809 1222.57 610.809C1213.36 610.809 1207.84 613.569 1207.84 613.569C1207.84 613.569 1198.64 561.071 1171.01 570.281C1143.39 579.49 1146.15 605.287 1146.15 605.287C1146.15 605.287 1128.66 592.389 1118.53 596.078C1108.39 599.766 1096.43 601.599 1096.43 601.599C1096.43 601.599 1081.7 584.107 1066.95 585.94C1052.22 587.772 1050.37 588.7 1043.01 587.772C1035.64 586.844 973.018 580.395 964.738 578.562H964.69Z" fill="url(#paint7_linear_263_3)"/>
<path d="M-240.87 146.51C-240.87 146.51 -111.942 221.117 -36.4025 251.531L-70.4726 246.009C-70.4726 246.009 77.7986 327.065 149.65 347.341C221.478 367.617 276.747 385.109 303.465 396.175C330.183 407.241 472.935 451.457 501.485 465.26C530.035 479.087 649.756 501.195 649.756 501.195C649.756 501.195 600.031 484.608 580.688 465.26C561.346 445.912 562.273 430.253 546.618 426.565C530.963 422.876 518.996 428.397 518.996 428.397C518.996 428.397 530.059 394.318 502.413 391.558C474.791 388.797 470.175 401.696 470.175 401.696C470.175 401.696 467.415 383.276 458.208 386.037C449 388.797 445.312 391.558 445.312 391.558C445.312 391.558 458.208 375.899 436.105 368.521C414.002 361.144 402.939 363 402.939 363C402.939 363 414.002 239.56 347.67 253.387C281.362 267.213 307.153 314.191 307.153 314.191C307.153 314.191 302.537 298.532 288.738 298.532C274.938 298.532 270.323 303.148 267.563 302.22C264.803 301.292 266.635 284.729 252.836 283.801C239.013 282.872 230.733 288.417 230.733 288.417C230.733 288.417 227.045 276.447 219.67 277.351C219.67 277.351 239.013 229.446 200.327 222.997C161.641 216.547 154.29 234.063 154.29 234.063C154.29 234.063 186.528 111.551 90.7415 112.455C-5.04478 113.383 41.9204 210.098 41.9204 210.098C41.9204 210.098 20.7456 187.99 5.99464 191.679C-8.73256 195.367 -17.94 211.026 -24.3876 207.338C-30.8352 203.649 -31.7631 180.613 -49.2502 182.469C-66.7372 184.301 -69.5209 188.918 -69.5209 188.918C-69.5209 188.918 -69.5209 167.738 -78.7283 164.977C-87.9358 162.217 -98.0712 164.977 -98.0712 164.977C-98.0712 164.977 -93.4556 119.833 -130.309 103.245C-167.139 86.6581 -186.482 83.8976 -201.233 117.976C-215.96 152.055 -227.951 124.426 -244.51 125.354C-261.093 126.282 -288.716 117.072 -288.716 117.072L-240.823 146.558L-240.87 146.51Z" fill="url(#paint8_linear_263_3)"/>
<path d="M495.3 331.992C495.3 331.992 571.434 373.757 618.09 389.725C664.746 405.694 686.849 410.596 703.431 414.904C703.431 414.904 689.918 406.313 679.497 403.838C669.052 401.386 661.082 400.149 647.568 390.939C634.054 381.729 629.153 373.733 622.396 377.422C615.639 381.111 614.426 382.943 614.426 382.943C614.426 382.943 611.357 371.877 603.981 371.282C596.606 370.663 593.537 373.114 593.537 373.114C593.537 373.114 589.849 366.975 587.398 366.975C584.948 366.975 579.428 367.593 579.428 367.593C579.428 367.593 575.74 337.489 564.082 339.964C552.424 342.415 551.187 354.1 551.187 354.1C551.187 354.1 540.742 342.439 535.841 344.271C530.94 346.104 516.808 339.964 516.808 339.964L495.324 331.992H495.3Z" fill="url(#paint9_linear_263_3)"/>
<path d="M-83.3912 265.357C-83.3912 265.357 145.011 370.378 340.248 422.876C340.248 422.876 319.977 407.217 307.082 397.079C294.186 386.941 296.946 379.587 287.739 379.587C278.531 379.587 273.916 379.587 269.324 372.21C264.732 364.833 251.837 369.449 251.837 369.449C251.837 369.449 242.629 359.312 239.87 359.312C237.11 359.312 233.422 361.144 233.422 361.144C233.422 361.144 238.942 323.377 216.839 303.101C194.736 282.825 170.802 294.819 164.354 307.718C157.906 320.616 160.666 351.006 160.666 351.006C160.666 351.006 157.906 325.209 145.939 327.97C133.972 330.73 129.356 338.108 129.356 338.108C129.356 338.108 127.524 327.042 122.908 327.042C118.293 327.042 110.013 328.874 110.013 328.874C110.013 328.874 141.323 258.86 96.1901 258.86C51.0569 258.86 55.6725 285.585 55.6725 285.585C55.6725 285.585 41.8494 275.447 39.0895 281.897C36.3297 288.346 35.4018 299.388 35.4018 299.388C35.4018 299.388 25.2664 277.28 8.68347 280.04C-7.8995 282.801 -5.13965 284.657 -10.6594 285.562C-16.1791 286.466 -20.7947 272.663 -29.0743 275.424C-37.3539 278.184 -41.9695 277.256 -41.9695 277.256L-83.415 265.286L-83.3912 265.357Z" fill="url(#paint10_linear_263_3)"/>
<path d="M148.891 725.159C148.701 724.945 148.511 724.731 148.344 724.517C227.5 741.913 315.554 758.619 411.697 773.065C411.697 773.065 365.041 748.505 342.938 746.054C320.836 743.603 317.148 746.054 307.322 739.914C297.496 733.774 295.045 716.568 270.492 719.043C245.939 721.494 241.014 730.109 234.875 722.732C228.737 715.355 226.286 706.764 215.223 708.001C204.16 709.239 199.259 715.378 199.259 715.378C199.259 715.378 195.571 699.41 180.844 694.508C166.117 689.605 156.291 690.819 156.291 690.819C156.291 690.819 147.702 612.214 91.2197 615.903C34.7377 619.592 59.291 672.399 59.291 672.399C59.291 672.399 39.6389 642.914 28.5994 649.053C17.5362 655.193 16.3228 662.571 16.3228 662.571C16.3228 662.571 11.4216 649.053 4.04613 647.84C-3.32936 646.626 -11.9182 645.389 -11.9182 645.389C-11.9182 645.389 -21.7443 560.644 -58.5742 569.235C-92.9535 577.255 -80.2724 622.733 -78.4404 628.754C-79.7728 624.708 -87.6003 603.742 -106.467 604.861C-127.333 606.098 -132.258 612.238 -132.258 612.238C-132.258 612.238 -124.882 593.818 -139.633 591.367C-154.36 588.916 -164.186 590.13 -164.186 590.13C-164.186 590.13 -140.847 539.773 -214.53 533.633C-288.214 527.493 -282.075 568.021 -293.115 568.021C-304.154 568.021 -311.53 542.224 -332.419 554.504C-353.308 566.784 -384 553.267 -384 553.267C-384 553.267 -342.245 576.612 -321.38 583.966C-321.38 583.966 -255.69 612.714 -135.113 650.124C-150.007 650.005 -169.016 648.506 -191.833 643.247C-191.833 643.247 33.8098 721.542 206.944 749.195C206.944 749.195 193.12 737.225 177.465 732.608C161.81 727.991 158.123 735.369 148.915 725.231L148.891 725.159Z" fill="url(#paint11_linear_263_3)"/>
</g>
<rect x="-10" y="1146" width="1521" height="832" fill="#A0DAF6"/>
<g clip-path="url(#clip2_263_3)">
<path d="M900 995.992L961.968 1016.64L1373.47 1023L1443.37 1009.5L1474.73 920.627L942.076 916.626L900 995.992Z" fill="url(#paint12_linear_263_3)"/>
<path d="M942.076 916.626L1000.03 928.619L1363.8 933.62L1474.73 920.627L1441.75 874.541L1151.94 864.663L984.048 874.541L942.076 916.626Z" fill="#F3FEFF"/>
<path d="M1151.94 864.663L984.235 874.531L1009.02 890.65H1341.81L1434.67 874.301L1151.94 864.663Z" fill="#E1F5FC"/>
<path d="M1151.94 864.663L1043.96 871.019C1043.94 871.092 1043.92 871.165 1043.92 871.238C1043.92 878.115 1119.46 883.69 1212.63 883.69C1300.22 883.69 1372.22 878.761 1380.53 872.457L1151.94 864.663V864.663Z" fill="#CCE5EE"/>
<path d="M1140.88 877.75C1151.23 886.242 1156.69 899.757 1167.58 907.561C1178.43 915.344 1193.16 916.032 1206.02 912.396C1218.87 908.759 1230.26 901.278 1241.23 893.64C1249.99 887.534 1258.76 881.126 1265.19 872.593C1265.77 871.822 1266.37 870.915 1266.22 869.956C1265.99 868.404 1264.12 867.789 1262.58 867.518C1225.31 860.964 1187.09 864.747 1149.44 868.539C1144.08 869.081 1136.32 870.29 1134.83 876.437C1136.71 877.5 1138.76 878.282 1140.81 879.094" fill="#CCE5EE"/>
<path d="M1017.41 771.376C1023.93 788.006 1050.16 885.711 1217.25 885.711C1347.35 885.711 1400.81 797.738 1418.1 758.789C1422.44 748.995 1432.94 743.473 1443.49 745.379C1460.82 748.495 1486.62 749.526 1504.14 734.022C1531.11 710.161 1482 690.978 1456.07 693.51C1453.7 693.74 1451.54 692.145 1451.12 689.811C1449.37 680.319 1442.38 658.615 1415.1 657.083C1380.12 655.124 1397.41 690.02 1396.8 700.2C1396.31 708.39 1391.5 715.704 1384.16 719.372C1355.74 733.595 1284.98 761.874 1201.17 742.712C1181.77 738.273 1165.05 726.291 1153.7 709.953C1138.58 688.176 1107.79 654.874 1054.55 672.463C1001.31 690.061 1010.88 754.736 1017.4 771.366L1017.41 771.376Z" fill="#D4C7BE"/>
<path d="M1056.83 696.963C1061.34 693.769 1062.63 687.838 1059.7 683.716C1056.78 679.593 1050.76 678.84 1046.25 682.034C1041.75 685.228 1040.46 691.159 1043.38 695.282C1046.3 699.404 1052.32 700.157 1056.83 696.963Z" fill="white"/>
<path d="M1055.92 693.602C1059.66 690.954 1060.72 686.036 1058.3 682.618C1055.88 679.199 1050.89 678.575 1047.15 681.223C1043.41 683.872 1042.35 688.79 1044.77 692.208C1047.19 695.626 1052.18 696.25 1055.92 693.602Z" fill="#603813"/>
<path d="M1049.61 732.001C1055.12 732.001 1059.58 727.536 1059.58 722.029C1059.58 716.522 1055.12 712.057 1049.61 712.057C1044.1 712.057 1039.64 716.522 1039.64 722.029C1039.64 727.536 1044.1 732.001 1049.61 732.001Z" fill="#C7B299"/>
<path d="M1037 718.882C1042.51 718.882 1046.97 714.418 1046.97 708.911C1046.97 703.403 1042.51 698.939 1037 698.939C1031.49 698.939 1027.03 703.403 1027.03 708.911C1027.03 714.418 1031.49 718.882 1037 718.882Z" fill="#C7B299"/>
<path d="M1045.8 711.276L1045.71 704.743C1045.7 703.67 1046.97 703.117 1047.76 703.847L1047.95 703.951C1050.98 705.566 1053.49 707.983 1055.23 710.942C1056 711.682 1055.51 712.985 1054.45 713.026L1047.91 713.276C1046.78 713.318 1045.82 712.412 1045.81 711.276H1045.8Z" fill="#603813" stroke="#603813" stroke-width="2.3" stroke-miterlimit="10"/>
<path d="M1065.61 679.59L1056.94 671.869" stroke="#603813" stroke-width="2.3" stroke-linecap="round" stroke-linejoin="round"/>
<path d="M1028.75 697.657C1028.75 697.657 1016.88 679.767 998.823 667.847" stroke="#603813" stroke-width="1.72" stroke-linecap="round" stroke-linejoin="round"/>
<path d="M1024.8 702.409C1024.8 702.409 1001.47 684.987 980.609 685.352" stroke="#603813" stroke-width="1.72" stroke-linecap="round" stroke-linejoin="round"/>
<path d="M1068.26 732.001C1068.26 732.001 1089.07 737.262 1106.32 750.349" stroke="#603813" stroke-width="1.72" stroke-linecap="round" stroke-linejoin="round"/>
<path d="M1064.66 738.346C1064.66 738.346 1088.83 754.569 1095.42 774.367" stroke="#603813" stroke-width="1.72" stroke-linecap="round" stroke-linejoin="round"/>
<path d="M1091.62 707.379L1082.96 699.658" stroke="#603813" stroke-width="2.3" stroke-linecap="round" stroke-linejoin="round"/>
<path d="M1086.42 715.871L1077.16 713.422L1079.84 723.321" stroke="#603813" stroke-width="2.3" stroke-linecap="round" stroke-linejoin="round"/>
<path opacity="0.6" d="M1335.95 854.264C1142.13 855.046 1125.82 802.958 1099.12 818.608C1085.09 826.83 1082.21 841.584 1082.8 854.192C1112.21 872.103 1154.94 885.7 1217.25 885.7C1267.46 885.7 1306.25 872.593 1335.94 854.264H1335.95Z" fill="url(#paint13_linear_263_3)"/>
<path d="M1106.32 807.616C1106.32 807.616 1140.71 852.993 1147.98 866.789C1155.24 880.584 1175.75 896.839 1217.25 893.619C1258.75 890.4 1269.94 871.874 1270.67 858.078C1271.4 844.282 1256.16 832.665 1230.74 840.656C1205.33 848.638 1166.86 820.849 1166.86 820.849" fill="url(#paint14_linear_263_3)"/>
<path d="M1220.7 778.462C1205.77 777.743 1185.09 780.452 1172.66 770.48C1171.59 769.615 1170.57 768.553 1170.31 767.198C1170.11 766.219 1170.34 765.208 1170.67 764.27C1172.48 759.164 1177.39 755.622 1182.61 754.163C1187.83 752.704 1193.37 752.996 1198.76 753.517C1213.61 754.945 1228.3 757.945 1242.59 762.259C1243.52 762.54 1244.5 762.853 1245.14 763.582C1246.16 764.729 1246.02 766.5 1245.53 767.948C1243.99 772.533 1239.7 775.794 1235.1 777.274C1230.49 778.753 1225.54 778.712 1220.72 778.472L1220.7 778.462Z" fill="#CDBDB4"/>
<path d="M1342.29 763.76C1332.83 766.854 1324.3 771.095 1315.22 774.388C1306.9 777.399 1297.6 775.377 1289.03 775.065C1286.97 774.992 1284.44 774.565 1283.8 772.595C1283.24 770.845 1284.63 769.115 1285.96 767.854C1296.62 757.727 1310.24 751.11 1324.38 747.067C1338.52 743.024 1353.23 741.451 1367.9 740.388C1369.27 740.295 1370.87 740.295 1371.71 741.368C1372.8 742.733 1371.87 744.733 1370.82 746.13C1364 755.226 1353.08 760.217 1342.28 763.76H1342.29Z" fill="#CDBDB4"/>
</g>
<path d="M395.655 883.512L429.709 835.323L257.514 790.346H204.704L147 862.951L218.962 906L395.655 883.512Z" fill="url(#paint15_linear_263_3)"/>
<path d="M323.05 751.153L212.537 762.718L177.841 825.685L265.866 855.883L402.723 848.816L429.066 836.608L413.646 768.501L323.05 751.153Z" fill="#F3FEFF"/>
<path d="M212.168 763.388L275.575 783.683L387.496 780.973L413.181 768.412L323.051 751.153L212.537 762.718L212.168 763.388Z" fill="#E2F5FC"/>
<g style="mix-blend-mode:darken" opacity="0.8">
<ellipse cx="318.949" cy="767.418" rx="73.5818" ry="7.74545" fill="#C8E1EA"/>
</g>
<g clip-path="url(#clip3_263_3)">
<path d="M398.943 678.82C398.943 678.82 419.24 664.638 428.714 649.716C430.25 647.295 433.715 647.003 435.537 649.226C439.052 653.517 446.859 665.203 437.714 680.317C436.974 681.546 436.023 682.658 434.909 683.564C410.419 703.453 385.009 700.591 385.009 700.591L398.943 678.826V678.82Z" fill="#CDBDB4"/>
<path d="M310.587 768.808C313.094 769 315.601 769.267 318.089 769.615C336.277 772.161 420.894 764.902 406.469 656.926C406.469 656.926 398.208 608.274 356.083 605.803C356.083 605.803 312.304 595.911 284.219 655.274C284.219 655.274 257.788 665.165 247.045 637.136C247.045 637.136 239.6 565.386 216.211 598.929C213.642 602.611 209.412 604.785 204.921 604.698C198.539 604.567 186.203 604.369 183.448 611.795C181.563 616.868 186.004 622.668 188.897 626.35C193.973 632.82 200.013 638.396 203.409 646.022C206.805 653.647 207.776 662.669 208.84 671.151C215.278 722.411 258.802 764.803 310.581 768.808H310.587Z" fill="#D4C7BE"/>
<path style="mix-blend-mode:multiply" d="M248.601 640.669C258.983 661.937 279.566 656.746 283.547 655.504C280.337 666.221 273.974 680.068 261.788 685.439C240.744 694.704 230.226 646.519 230.226 646.519C230.226 646.519 238.393 643.37 248.601 640.669V640.669Z" fill="url(#paint16_linear_263_3)"/>
<path d="M308.603 708.601C294.352 715.853 280.456 717.064 268.345 716.462C260.37 716.065 258.697 703.621 258.479 695.157C258.392 691.81 261.869 689.581 264.924 690.954C281.694 698.492 301.649 694.698 301.649 694.698L308.597 708.607L308.603 708.601Z" fill="url(#paint17_linear_263_3)"/>
<path opacity="0.6" d="M319.208 769.745C319.407 769.764 319.619 769.789 319.83 769.807C319.949 769.82 320.073 769.826 320.197 769.839C320.403 769.857 320.62 769.87 320.838 769.882C320.969 769.888 321.093 769.901 321.23 769.907C321.473 769.919 321.721 769.932 321.97 769.944C322.088 769.944 322.2 769.957 322.325 769.957C322.692 769.969 323.065 769.981 323.451 769.988C323.575 769.988 323.706 769.988 323.83 769.988C324.104 769.988 324.378 769.988 324.658 769.988C324.838 769.988 325.025 769.988 325.211 769.988C325.448 769.988 325.69 769.988 325.933 769.981C326.138 769.981 326.349 769.975 326.555 769.969C326.785 769.969 327.021 769.957 327.258 769.944C327.482 769.938 327.706 769.925 327.936 769.919C328.172 769.907 328.408 769.894 328.651 769.882C329.111 769.857 329.572 769.832 330.051 769.795C330.262 769.783 330.474 769.77 330.685 769.752C330.971 769.727 331.27 769.702 331.562 769.677C331.767 769.658 331.967 769.64 332.172 769.621C332.477 769.59 332.794 769.559 333.105 769.528C333.298 769.509 333.497 769.485 333.69 769.466C334.019 769.429 334.349 769.391 334.685 769.354C334.859 769.336 335.027 769.311 335.201 769.292C335.568 769.242 335.935 769.199 336.308 769.149C336.339 769.149 336.377 769.137 336.408 769.137C337.795 768.944 339.22 768.715 340.681 768.441C340.793 768.423 340.911 768.398 341.023 768.379C341.459 768.299 341.901 768.212 342.342 768.119C342.454 768.094 342.572 768.069 342.684 768.05C343.145 767.957 343.611 767.858 344.078 767.752C344.121 767.74 344.165 767.734 344.202 767.721C346.311 767.249 348.469 766.69 350.665 766.032C350.709 766.02 350.746 766.007 350.79 765.995C351.331 765.833 351.872 765.666 352.413 765.492C352.432 765.486 352.457 765.479 352.475 765.473C371.18 759.45 391.875 746.187 401.94 718.753C401.94 718.753 401.94 718.741 401.946 718.735C403.47 714.574 404.752 710.097 405.741 705.26C402.512 695.25 395.57 682.322 380.741 676.467C354.783 666.221 338.361 693.251 335.469 697.554C328.284 708.241 307.539 755.023 260.668 751.868C274.701 760.841 290.725 766.752 307.713 768.541C308.484 768.621 309.262 768.696 310.046 768.758C310.226 768.771 310.407 768.795 310.593 768.808C313.1 769 315.607 769.267 318.095 769.615C318.356 769.652 318.636 769.683 318.922 769.721C319.016 769.733 319.115 769.739 319.208 769.752V769.745Z" fill="white"/>
<path opacity="0.6" d="M319.208 769.745C319.407 769.764 319.619 769.789 319.83 769.807C319.949 769.82 320.073 769.826 320.197 769.839C320.403 769.857 320.62 769.87 320.838 769.882C320.969 769.888 321.093 769.901 321.23 769.907C321.473 769.919 321.721 769.932 321.97 769.944C322.088 769.944 322.2 769.957 322.325 769.957C322.692 769.969 323.065 769.981 323.451 769.988C323.575 769.988 323.706 769.988 323.83 769.988C324.104 769.988 324.378 769.988 324.658 769.988C324.838 769.988 325.025 769.988 325.211 769.988C325.448 769.988 325.69 769.988 325.933 769.981C326.138 769.981 326.349 769.975 326.555 769.969C326.785 769.969 327.021 769.957 327.258 769.944C327.482 769.938 327.706 769.925 327.936 769.919C328.172 769.907 328.408 769.894 328.651 769.882C329.111 769.857 329.572 769.832 330.051 769.795C330.262 769.783 330.474 769.77 330.685 769.752C330.971 769.727 331.27 769.702 331.562 769.677C331.767 769.658 331.967 769.64 332.172 769.621C332.477 769.59 332.794 769.559 333.105 769.528C333.298 769.509 333.497 769.485 333.69 769.466C334.019 769.429 334.349 769.391 334.685 769.354C334.859 769.336 335.027 769.311 335.201 769.292C335.568 769.242 335.935 769.199 336.308 769.149C336.339 769.149 336.377 769.137 336.408 769.137C337.795 768.944 339.22 768.715 340.681 768.441C340.793 768.423 340.911 768.398 341.023 768.379C341.459 768.299 341.901 768.212 342.342 768.119C342.454 768.094 342.572 768.069 342.684 768.05C343.145 767.957 343.611 767.858 344.078 767.752C344.121 767.74 344.165 767.734 344.202 767.721C346.311 767.249 348.469 766.69 350.665 766.032C350.709 766.02 350.746 766.007 350.79 765.995C351.331 765.833 351.872 765.666 352.413 765.492C352.432 765.486 352.457 765.479 352.475 765.473C371.18 759.45 391.875 746.187 401.94 718.753C401.94 718.753 401.94 718.741 401.946 718.735C403.47 714.574 404.752 710.097 405.741 705.26C402.512 695.25 395.57 682.322 380.741 676.467C354.783 666.221 338.361 693.251 335.469 697.554C328.284 708.241 307.539 755.023 260.668 751.868C274.701 760.841 290.725 766.752 307.713 768.541C308.484 768.621 309.262 768.696 310.046 768.758C310.226 768.771 310.407 768.795 310.593 768.808C313.1 769 315.607 769.267 318.095 769.615C318.356 769.652 318.636 769.683 318.922 769.721C319.016 769.733 319.115 769.739 319.208 769.752V769.745Z" fill="url(#paint18_linear_263_3)"/>
<path d="M370.366 637.304C374.389 637.304 377.65 634.048 377.65 630.032C377.65 626.017 374.389 622.761 370.366 622.761C366.343 622.761 363.082 626.017 363.082 630.032C363.082 634.048 366.343 637.304 370.366 637.304Z" fill="white"/>
<path d="M369.116 635.074C372.448 635.074 375.15 632.378 375.15 629.051C375.15 625.725 372.448 623.028 369.116 623.028C365.783 623.028 363.082 625.725 363.082 629.051C363.082 632.378 365.783 635.074 369.116 635.074Z" fill="#603813"/>
<path d="M333.056 642.346C337.079 642.346 340.34 639.09 340.34 635.075C340.34 631.059 337.079 627.803 333.056 627.803C329.033 627.803 325.771 631.059 325.771 635.075C325.771 639.09 329.033 642.346 333.056 642.346Z" fill="white"/>
<path d="M331.811 640.061C335.144 640.061 337.845 637.364 337.845 634.038C337.845 630.711 335.144 628.014 331.811 628.014C328.479 628.014 325.777 630.711 325.777 634.038C325.777 637.364 328.479 640.061 331.811 640.061Z" fill="#603813"/>
<path d="M360.755 653.33C364.765 653.33 368.015 650.086 368.015 646.084C368.015 642.082 364.765 638.837 360.755 638.837C356.746 638.837 353.496 642.082 353.496 646.084C353.496 650.086 356.746 653.33 360.755 653.33Z" fill="#C7B299"/>
<path d="M347.599 654.889C351.608 654.889 354.858 651.645 354.858 647.642C354.858 643.64 351.608 640.396 347.599 640.396C343.59 640.396 340.34 643.64 340.34 647.642C340.34 651.645 343.59 654.889 347.599 654.889Z" fill="#C7B299"/>
<path d="M352.837 643.588L349.006 640.775C348.377 640.315 348.614 639.328 349.385 639.204L349.534 639.136C351.799 638.092 354.312 637.695 356.787 637.981C357.552 637.856 358.1 638.713 357.652 639.347L354.927 643.24C354.455 643.923 353.509 644.078 352.837 643.588Z" fill="#603813" stroke="#603813" stroke-width="2.8" stroke-miterlimit="10"/>
<path d="M331.812 623.854L324.745 628.008" stroke="#603813" stroke-width="2.8" stroke-linecap="round" stroke-linejoin="round"/>
<path d="M368.009 619.321L374.366 620.445" stroke="#603813" stroke-width="2.8" stroke-linecap="round" stroke-linejoin="round"/>
<path d="M345.509 647.481C345.509 647.481 330.3 643.886 314.768 646.537" stroke="#603813" stroke-width="2.1" stroke-linecap="round" stroke-linejoin="round"/>
<path d="M345.777 651.964C345.777 651.964 324.708 654.305 313.804 664.861" stroke="#603813" stroke-width="2.1" stroke-linecap="round" stroke-linejoin="round"/>
<path d="M365.402 644.265C365.402 644.265 380.586 640.582 396.137 643.147" stroke="#603813" stroke-width="2.1" stroke-linecap="round" stroke-linejoin="round"/>
<path d="M365.234 649.567C365.234 649.567 386.315 651.797 397.282 662.291" stroke="#603813" stroke-width="2.1" stroke-linecap="round" stroke-linejoin="round"/>
</g>
</g>
<defs>
<linearGradient id="paint0_linear_263_3" x1="769.5" y1="-27" x2="769.5" y2="1033" gradientUnits="userSpaceOnUse">
<stop stop-color="#B8F3FF"/>
<stop offset="1" stop-color="#F6E2FF"/>
</linearGradient>
<linearGradient id="paint1_linear_263_3" x1="1641.81" y1="1387.15" x2="-174.476" y2="923.95" gradientUnits="userSpaceOnUse">
<stop stop-color="white"/>
<stop offset="1" stop-color="white"/>
</linearGradient>
<linearGradient id="paint2_linear_263_3" x1="1624.3" y1="721.85" x2="-141.261" y2="271.593" gradientUnits="userSpaceOnUse">
<stop stop-color="white"/>
<stop offset="1" stop-color="white"/>
</linearGradient>
<linearGradient id="paint3_linear_263_3" x1="1563.84" y1="376.708" x2="504.069" y2="106.421" gradientUnits="userSpaceOnUse">
<stop stop-color="white"/>
<stop offset="1" stop-color="white"/>
</linearGradient>
<linearGradient id="paint4_linear_263_3" x1="1627.1" y1="1029.08" x2="-98.0058" y2="589.149" gradientUnits="userSpaceOnUse">
<stop stop-color="white"/>
<stop offset="1" stop-color="white"/>
</linearGradient>
<linearGradient id="paint5_linear_263_3" x1="940.208" y1="1105.5" x2="-261.107" y2="799.126" gradientUnits="userSpaceOnUse">
<stop stop-color="white"/>
<stop offset="1" stop-color="white"/>
</linearGradient>
<linearGradient id="paint6_linear_263_3" x1="1389.66" y1="359.002" x2="751.043" y2="-41.2524" gradientUnits="userSpaceOnUse">
<stop stop-color="white"/>
<stop offset="0.62" stop-color="#D9F1FF"/>
<stop offset="1" stop-color="#BAE6FB"/>
</linearGradient>
<linearGradient id="paint7_linear_263_3" x1="1333.08" y1="649.695" x2="825.916" y2="502.359" gradientUnits="userSpaceOnUse">
<stop stop-color="#F3E7FF"/>
<stop offset="0.62" stop-color="#DEF3FF"/>
<stop offset="1" stop-color="#F2FBFF"/>
</linearGradient>
<linearGradient id="paint8_linear_263_3" x1="607.787" y1="464.356" x2="-239.596" y2="55.509" gradientUnits="userSpaceOnUse">
<stop stop-color="white"/>
<stop offset="0.28125" stop-color="#EBF8FF"/>
<stop offset="1" stop-color="#C0EBFF"/>
</linearGradient>
<linearGradient id="paint9_linear_263_3" x1="716.16" y1="430.158" x2="510.458" y2="325.799" gradientUnits="userSpaceOnUse">
<stop stop-color="#DDEAFA"/>
<stop offset="0.62" stop-color="#B3DDF5"/>
<stop offset="1" stop-color="#9CD9F5"/>
</linearGradient>
<linearGradient id="paint10_linear_263_3" x1="286.502" y1="384.918" x2="-34.0281" y2="236.362" gradientUnits="userSpaceOnUse">
<stop stop-color="white"/>
<stop offset="0.62" stop-color="#E9F7FF"/>
<stop offset="1" stop-color="#7DD6FF"/>
</linearGradient>
<linearGradient id="paint11_linear_263_3" x1="320.931" y1="753.408" x2="-335.761" y2="530.57" gradientUnits="userSpaceOnUse">
<stop stop-color="white"/>
<stop offset="1" stop-color="#E7E7FF"/>
</linearGradient>
<linearGradient id="paint12_linear_263_3" x1="1188.94" y1="914.177" x2="1185.97" y2="997.441" gradientUnits="userSpaceOnUse">
<stop offset="0.03" stop-color="#53B7E8"/>
<stop offset="0.21" stop-color="#58B9E9" stop-opacity="0.83"/>
<stop offset="0.62" stop-color="#66C0ED" stop-opacity="0.41"/>
<stop offset="1" stop-color="#74C7F1" stop-opacity="0"/>
</linearGradient>
<linearGradient id="paint13_linear_263_3" x1="1082.73" y1="850.691" x2="1335.95" y2="850.691" gradientUnits="userSpaceOnUse">
<stop offset="0.31" stop-color="white"/>
<stop offset="1" stop-color="#E9E3E0"/>
</linearGradient>
<linearGradient id="paint14_linear_263_3" x1="1186.9" y1="824.579" x2="1195.41" y2="860.475" gradientUnits="userSpaceOnUse">
<stop stop-color="#D4C7BE"/>
<stop offset="1" stop-color="#C2B2A9"/>
</linearGradient>
<linearGradient id="paint15_linear_263_3" x1="288.355" y1="790.346" x2="268.604" y2="951.76" gradientUnits="userSpaceOnUse">
<stop stop-color="#4EB4E7"/>
<stop offset="0.713542" stop-color="#81CDF3" stop-opacity="0"/>
</linearGradient>
<linearGradient id="paint16_linear_263_3" x1="246.218" y1="664.601" x2="356.822" y2="648.867" gradientUnits="userSpaceOnUse">
<stop stop-color="white"/>
<stop offset="0.34" stop-color="#E6E0DD"/>
<stop offset="0.99" stop-color="#B19F95"/>
</linearGradient>
<linearGradient id="paint17_linear_263_3" x1="308.61" y1="703.565" x2="258.485" y2="703.565" gradientUnits="userSpaceOnUse">
<stop stop-color="#D4C7BE"/>
<stop offset="1" stop-color="#C2B2A9"/>
</linearGradient>
<linearGradient id="paint18_linear_263_3" x1="333.366" y1="683.08" x2="332.771" y2="844.073" gradientUnits="userSpaceOnUse">
<stop offset="0.31" stop-color="white"/>
<stop offset="0.53" stop-color="#E3DCD8"/>
<stop offset="0.77" stop-color="#C2B2A9"/>
</linearGradient>
<clipPath id="clip0_263_3">
<rect width="1512" height="1937" fill="white"/>
</clipPath>
<clipPath id="clip1_263_3">
<rect width="2059" height="1325" fill="white" transform="translate(-387 20)"/>
</clipPath>
<clipPath id="clip2_263_3">
<rect width="612" height="366" fill="white" transform="translate(900 657)"/>
</clipPath>
<clipPath id="clip3_263_3">
<rect width="259" height="180" fill="white" transform="translate(183 590)"/>
</clipPath>
</defs>
</svg>
