<svg width="57" height="44" viewBox="0 0 57 44" fill="none" xmlns="http://www.w3.org/2000/svg">
<path d="M52.6644 33.108C52.6644 33.108 53.8242 29.7458 51.3736 29.8674C50.6222 29.9049 49.9239 30.2823 49.4312 30.853C48.9667 31.3926 48.4211 32.1349 48.4211 32.6526C48.4211 32.6526 47.0087 32.609 45.3999 32.0195C46.2947 30.0671 46.7842 27.7528 46.7842 25.0238C46.7842 12.6542 36.7605 2.62378 24.3921 2.62378C12.0238 2.62378 2 12.6542 2 25.0238C2 36.6168 10.8047 40.7524 22.088 41.2265L21.9727 41.2733C21.9727 41.2733 39.3888 42.5832 48.9043 35.8869C48.9043 35.8869 52.362 37.6554 53.5717 36.5949C54.7845 35.5345 54.479 33.0363 52.6644 33.1111V33.108Z" fill="#E5DCD6"/>
<path d="M53.8677 32.3623C53.9123 32.0794 53.9444 31.7551 53.9378 31.4223C53.9278 30.9176 53.8265 30.2493 53.3934 29.7019C52.9136 29.0957 52.1827 28.8261 51.3241 28.8687L51.3239 28.8687C50.2681 28.9213 49.3239 29.4469 48.6742 30.1996L48.6734 30.2006C48.4244 30.4898 48.1333 30.8562 47.899 31.239C47.8385 31.3379 47.7732 31.4512 47.711 31.5755C47.6957 31.5733 47.6803 31.5709 47.6647 31.5686C47.3996 31.5281 47.0853 31.4693 46.742 31.3844C47.4251 29.5251 47.7842 27.4113 47.7842 25.0238C47.7842 12.1023 37.3132 1.62378 24.3921 1.62378C11.4711 1.62378 1 12.1023 1 25.0238C1 31.116 3.33609 35.3664 7.23715 38.1125C10.978 40.7458 16.0557 41.9246 21.6104 42.2055C21.7006 42.2406 21.7972 42.2629 21.8977 42.2705L21.9015 42.2194C21.9016 42.2194 21.9017 42.2194 21.9018 42.2194C21.8981 42.2705 21.8982 42.2705 21.8983 42.2705L21.8993 42.2706L21.9025 42.2708L21.9137 42.2716L21.9547 42.2745C21.9902 42.2769 22.0421 42.2804 22.1094 42.2845C22.2441 42.2928 22.441 42.3038 22.6937 42.3154C23.1991 42.3387 23.9286 42.3641 24.8324 42.3733C26.639 42.3917 29.1483 42.3456 31.9617 42.087C37.3684 41.59 44.057 40.2956 48.9968 37.034C49.0189 37.0437 49.0415 37.0536 49.0646 37.0637C49.4297 37.2225 49.9371 37.4258 50.4928 37.5951C51.0401 37.7619 51.6801 37.9103 52.2984 37.9311C52.8931 37.9512 53.646 37.8589 54.2299 37.3478C54.2302 37.3475 54.2306 37.3472 54.2309 37.3469L53.5717 36.5949L53.8677 32.3623Z" stroke="#425673" stroke-width="2" stroke-miterlimit="10" stroke-linejoin="round"/>
<path d="M14.4119 15.6764C15.5915 15.6764 16.5476 14.7199 16.5476 13.54C16.5476 12.36 15.5915 11.4035 14.4119 11.4035C13.2324 11.4035 12.2762 12.36 12.2762 13.54C12.2762 14.7199 13.2324 15.6764 14.4119 15.6764Z" fill="#603813"/>
<path d="M34.3723 15.6764C35.5518 15.6764 36.508 14.7199 36.508 13.54C36.508 12.36 35.5518 11.4035 34.3723 11.4035C33.1928 11.4035 32.2366 12.36 32.2366 13.54C32.2366 14.7199 33.1928 15.6764 34.3723 15.6764Z" fill="#603813"/>
<path d="M20.9251 22.4631C23.0224 22.4631 24.7225 20.7623 24.7225 18.6643C24.7225 16.5663 23.0224 14.8655 20.9251 14.8655C18.8278 14.8655 17.1276 16.5663 17.1276 18.6643C17.1276 20.7623 18.8278 22.4631 20.9251 22.4631Z" fill="#C7B299"/>
<path d="M27.859 22.4631C29.9563 22.4631 31.6565 20.7623 31.6565 18.6643C31.6565 16.5663 29.9563 14.8655 27.859 14.8655C25.7617 14.8655 24.0615 16.5663 24.0615 18.6643C24.0615 20.7623 25.7617 22.4631 27.859 22.4631Z" fill="#C7B299"/>
<path d="M24.8004 16.8834L26.6586 15.2242C26.961 14.9528 26.7895 14.4507 26.3842 14.4226L26.3032 14.3945C25.0716 13.9641 23.7434 13.8799 22.4683 14.1544C22.0629 14.1263 21.8229 14.6004 22.0848 14.9123L23.6967 16.8117C23.9773 17.1423 24.4792 17.1766 24.8035 16.8865L24.8004 16.8834Z" fill="#603813" stroke="#603813" stroke-width="2.93" stroke-miterlimit="10"/>
<path d="M13.2303 23.9758C14.7768 24.2097 16.4604 24.6869 17.6109 25.7131C18.0411 26.0967 18.3155 26.4335 18.5618 26.9637C18.5743 26.9949 18.5899 27.023 18.6023 27.0542C18.568 26.9762 18.5992 27.0448 18.6055 27.0635C18.6273 27.1197 18.646 27.1758 18.6647 27.232C18.7052 27.3536 18.7364 27.4752 18.7645 27.6C18.7738 27.6499 18.7832 27.7029 18.7925 27.7528C18.8112 27.8557 18.7832 27.6624 18.7925 27.7684C18.7925 27.7934 18.7988 27.8183 18.8019 27.8433C18.8112 27.9587 18.8175 28.0741 18.8143 28.1926C18.8143 28.3018 18.805 28.4109 18.7925 28.5201C18.805 28.4047 18.78 28.5887 18.7738 28.6199C18.7613 28.6791 18.7489 28.7353 18.7364 28.7914C18.7115 28.8975 18.6772 29.0004 18.6397 29.1002C18.6335 29.122 18.5712 29.2686 18.6148 29.1688C18.5899 29.2281 18.5618 29.2842 18.5337 29.3403C18.487 29.4308 18.4371 29.5212 18.381 29.6086C18.3498 29.6585 18.3155 29.7084 18.2812 29.7552C18.2656 29.777 18.2531 29.7957 18.2375 29.8144C18.2313 29.8238 18.275 29.7708 18.2188 29.8394C18.0692 30.0172 17.9071 30.1762 17.7293 30.3259C17.6514 30.3883 17.7761 30.2916 17.7262 30.3259C17.7044 30.3415 17.6857 30.3571 17.6639 30.3727C17.614 30.407 17.5641 30.4444 17.5111 30.4756C17.4144 30.538 17.3147 30.5941 17.2118 30.6441C17.1557 30.6721 17.0964 30.7002 17.0403 30.7251C17.1307 30.6846 16.978 30.7501 16.9561 30.7563C16.8345 30.8031 16.7067 30.8405 16.5789 30.8749C16.4573 30.906 16.3357 30.9279 16.2141 30.9497C16.105 30.9684 16.2702 30.9435 16.2016 30.9497C16.1736 30.9528 16.1424 30.9559 16.1143 30.9591C16.0333 30.9684 15.9491 30.9715 15.8649 30.9747C15.7433 30.9809 15.6217 30.9778 15.5001 30.9747C15.3442 30.9684 15.1914 30.9528 15.1104 30.9372C13.3894 30.6565 11.952 29.5306 10.7766 28.2612C10.4274 27.8807 9.85999 28.4483 10.2092 28.8288C11.369 30.0826 12.8094 31.2273 14.5024 31.6327C15.656 31.9103 16.925 31.8043 17.9382 31.1462C18.8019 30.5848 19.4254 29.6772 19.572 28.6511C19.7403 27.4877 19.3132 26.3649 18.5369 25.5041C17.2586 24.0881 15.2663 23.4768 13.4392 23.1992C13.2241 23.168 13.009 23.2522 12.9466 23.4799C12.8936 23.6702 13.0121 23.9415 13.2272 23.9727L13.2303 23.9758Z" fill="#CDBDB4"/>
<path d="M35.7877 23.2024C34.0885 23.4581 32.3207 23.9946 31.0237 25.1735C30.1694 25.947 29.5833 27.048 29.6145 28.2207C29.6425 29.2499 30.1351 30.2417 30.9364 30.8905C31.8749 31.6484 33.0752 31.8947 34.2538 31.7263C36.14 31.455 37.7613 30.1949 39.0178 28.832C39.367 28.4546 38.8027 27.8869 38.4503 28.2643C37.3809 29.4215 36.0777 30.4756 34.55 30.853C34.2288 30.9341 34.0418 30.9622 33.7456 30.9747C33.6177 30.9809 33.4899 30.9809 33.3621 30.9747C33.2904 30.9747 33.2187 30.9684 33.1501 30.9622C33.122 30.9622 33.0908 30.956 33.0628 30.9528C32.9568 30.9404 33.0939 30.9591 33.016 30.9466C32.7635 30.9061 32.514 30.8437 32.274 30.7532C32.249 30.7439 32.0994 30.6815 32.1898 30.722C32.1368 30.6971 32.0838 30.6753 32.0308 30.6472C31.9248 30.5942 31.8188 30.5349 31.719 30.4694C31.666 30.4351 31.6161 30.4008 31.5662 30.3665C31.5506 30.354 31.5319 30.3415 31.5163 30.3291C31.4322 30.2667 31.5818 30.3821 31.5007 30.3166C31.4072 30.2386 31.3168 30.1606 31.2295 30.0733C31.1515 29.9953 31.0798 29.9142 31.0081 29.83C30.9364 29.7458 31.0268 29.8643 30.9614 29.7708C30.9239 29.7177 30.8865 29.6647 30.8522 29.6117C30.7961 29.5244 30.7462 29.4339 30.6995 29.3435C30.6714 29.2905 30.6496 29.2374 30.6246 29.1844C30.5841 29.0971 30.6465 29.2437 30.6246 29.1844C30.6122 29.1532 30.5997 29.122 30.5872 29.0877C30.5498 28.9879 30.5186 28.8819 30.4906 28.779C30.4781 28.7322 30.4687 28.6823 30.4563 28.6355C30.45 28.6012 30.4189 28.3953 30.4313 28.5076C30.4064 28.2893 30.4002 28.0678 30.4189 27.8464C30.4189 27.8152 30.4251 27.784 30.4282 27.756C30.4407 27.653 30.4126 27.8433 30.4282 27.7404C30.4376 27.6905 30.4469 27.6374 30.4563 27.5875C30.4812 27.4628 30.5155 27.3411 30.556 27.2195C30.5716 27.1696 30.5935 27.1166 30.6122 27.0667C30.6184 27.0542 30.6589 26.9513 30.6215 27.0417C30.634 27.0105 30.6496 26.9825 30.6621 26.9513C30.7182 26.8265 30.7836 26.708 30.8554 26.5926C31.0144 26.3306 31.0985 26.2277 31.3012 26.0062C32.4704 24.7556 34.3037 24.2191 35.9935 23.9665C36.2086 23.9353 36.3271 23.6639 36.2741 23.4737C36.2118 23.246 35.9966 23.1618 35.7815 23.193L35.7877 23.2024Z" fill="#CDBDB4"/>
<path d="M32.2397 10.1684C32.7218 10.1684 33.1127 9.96875 33.1127 9.72243C33.1127 9.47611 32.7218 9.27643 32.2397 9.27643C31.7575 9.27643 31.3667 9.47611 31.3667 9.72243C31.3667 9.96875 31.7575 10.1684 32.2397 10.1684Z" fill="#603813"/>
<path d="M16.5477 10.1684C17.0298 10.1684 17.4207 9.96875 17.4207 9.72243C17.4207 9.47611 17.0298 9.27643 16.5477 9.27643C16.0655 9.27643 15.6747 9.47611 15.6747 9.72243C15.6747 9.96875 16.0655 10.1684 16.5477 10.1684Z" fill="#603813"/>
</svg>
